<svg width="83" height="81" viewBox="0 0 83 81" fill="none" xmlns="http://www.w3.org/2000/svg">
<path d="M77.8218 33.1886L52.0044 7.80756L50.2738 6.10541C49.8796 5.72014 49.3463 5.50391 48.7905 5.50391C48.2348 5.50391 47.7015 5.72014 47.3072 6.10541L19.7593 33.1886C19.3552 33.5845 19.0359 34.0559 18.8202 34.5752C18.6045 35.0944 18.4967 35.6509 18.5031 36.2118C18.5299 38.5251 20.4876 40.3718 22.8395 40.3718H25.6791V61.7768H71.902V40.3718H74.8018C75.9443 40.3718 77.02 39.9315 77.8285 39.1363C78.2266 38.746 78.542 38.2819 78.7565 37.7709C78.9709 37.2598 79.0802 36.712 79.0779 36.1592C79.0779 35.0419 78.6303 33.9838 77.8218 33.1886ZM52.5322 57.045H45.0489V43.6381H52.5322V57.045ZM67.0913 35.64V57.045H56.8084V42.0608C56.8084 40.6084 55.6124 39.432 54.1358 39.432H43.4453C41.9687 39.432 40.7727 40.6084 40.7727 42.0608V57.045H30.4898V35.64H24.0755L48.7972 11.3433L50.3407 12.8614L73.5122 35.64H67.0913Z" fill="#CDCDCD"/>
<g clip-path="url(#clip0_939_1036)">
<path d="M57.4745 73.9511H37.8634V78.4999L31.4054 72.2977L37.8634 66.0942V70.643H57.4745V66.0942L63.9324 72.2977L57.4745 78.5012V73.9511Z" fill="#CDCDCD"/>
</g>
<g clip-path="url(#clip1_939_1036)">
<path d="M10.0186 30.9109L10.0186 49.8458L14.5674 49.8458L8.36518 56.0811L2.16171 49.8458L6.71049 49.8458L6.71049 30.9109L2.16171 30.9109L8.36518 24.6757L14.5687 30.9109L10.0186 30.9109Z" fill="#CDCDCD"/>
</g>
<defs>
<clipPath id="clip0_939_1036">
<rect width="32.527" height="16.8243" fill="white" transform="translate(31.4054 63.9326)"/>
</clipPath>
<clipPath id="clip1_939_1036">
<rect width="31.4054" height="16.8243" fill="white" transform="translate(0 56.0811) rotate(-90)"/>
</clipPath>
</defs>
</svg>
